<?xml version="1.0" encoding="utf-8"?>
<!-- Generator: Adobe Illustrator 19.1.0, SVG Export Plug-In . SVG Version: 6.00 Build 0)  -->
<svg version="1.1" id="Layer_1" xmlns="http://www.w3.org/2000/svg" xmlns:xlink="http://www.w3.org/1999/xlink" x="0px" y="0px"
	 viewBox="0 0 100 100" style="enable-background:new 0 0 100 100;" xml:space="preserve">
<style type="text/css">
	.st0{fill:#25B4E2;}
</style>
<g>
	<path class="st0" d="M89.4,41.3c0,0,1.6,1.2,1.6,2c0,0.8,0,2,0.3,2.5c0.3,0.6,1.4,2.2,1.4,2.5c0,0.3-0.3,0.7-0.4,1
		c-0.1,0.3,0.1,0.9-0.7,0.9c-0.8,0-1.9-0.3-2.1-0.3c-0.2,0-2.1-2.3-2.6-2.3c-0.6-0.1-2.6,0.2-4.1,1c-1.4,0.8-3.4,2.1-4.6,2.4
		c-1.2,0.4-2.6,0.2-3.1,0.7c-0.5,0.5-1,3.3-1.4,3.9c-0.3,0.7-0.8,1.3-1.2,1.5c-0.4,0.2-1.8,0.6-1.8,0.6s0,4.2,0,4.9
		c0,0.7,0.5,2.4,1.6,3.1c1,0.7,4.1,2.7,6.7,4.3c2.6,1.5,5.4,2.5,5.8,2.8c0.5,0.3,1.6,1.2,1.7,1.3c0,0.1-5.2-0.6-6.4-1
		C79,72.7,71.5,68,70,67.5c-1.5-0.5-3.6-1.3-3.6-1.9C66.4,65,65.6,52.9,62,49c-3.6-4-8.7-4.4-9.8-4.5c-1-0.2-1.2-0.7-1.2-1.8
		c0-1.1,0.3-3.2-0.9-3.9c-1.2-0.7-4.9-0.5-12.2,1.8c-7.3,2.3-14.2,3.8-21.7,0.8c-7.5-3-9.4-13-9.4-14.1c0-1,0.5-0.5,0.8,0.2
		c0.3,0.7,2.4,6.2,6.9,8.9c4.5,2.7,11,4.2,17.3,1.3c6.4-2.9,18.7-9,27.5-9.7c8.7-0.7,13.5,2.1,16.5,6.2c3,4.2,4.3,7.2,4.6,7.3
		c0.3,0.2,1.9,0.2,2.2-0.1c0.3-0.3,0.3-0.6,0.1-0.8c-0.2-0.1-1.4-0.7-1.5-1.7c0-1-0.3-2.9-0.5-3.5c-0.3-0.6-0.3-1.2-0.2-1.4
		c0.2-0.2,0.7,0.5,1.1,0.9c0.5,0.4,2.4,2.5,3,3.1c0.6,0.6,1.3,1.2,1.5,1.2c0.2,0,0.4-0.2,0.7-0.6c0.3-0.4,1.1-0.5,1.6-0.5
		c0.4-0.1,1.2,0,1.2,0.2c0,0.2,0.1,1.4-0.1,1.9C89.6,40.5,89.2,41.1,89.4,41.3"/>
</g>
</svg>
