<?xml version="1.0" encoding="UTF-8"?>
<svg width="512px" height="512px" viewBox="0 0 512 512" version="1.1" xmlns="http://www.w3.org/2000/svg" xmlns:xlink="http://www.w3.org/1999/xlink">
    <!-- Generator: Sketch 49.1 (51147) - http://www.bohemiancoding.com/sketch -->
    <title>kangaroo</title>
    <desc>Created with Sketch.</desc>
    <defs></defs>
    <g id="Page-1" stroke="none" stroke-width="1" fill="none" fill-rule="evenodd">
        <g id="kangaroo">
            <polygon id="Shape" fill="#FFFFFF" fill-rule="nonzero" points="0 0 512 0 512 512 0 512"></polygon>
            <g id="Group" transform="translate(20.000000, 43.000000)" fill="#000000" fill-rule="nonzero">
                <path d="M386.5,0.56 C383.7,0.56 381.2,1.09 379.3,2.12 C382,21.68 383.9,26.17 399.4,36.51 C378.5,75 392,86.5 285.1,73.2 C237.9,67.3 202.2,75.8 167.8,101.7 C119.5,138.1 103.5,158.5 78.2,225.2 C60.15,272.8 78.3,370.6 10.13,336 C3.69,333.8 -3.15,333.4 2.27,342.6 C11.8,357.3 29.63,367.7 52.21,358.6 C87.6,344.2 84.7,295.8 110.7,237.4 C119.7,216.9 140.2,168.1 159.5,190.7 C166.1,198.5 173.3,214.5 169.6,222.1 C153.7,255.4 144.2,278.7 119.3,297.8 C123,340 121.6,385.6 98.9,418.5 L107.7,425.4 C120.9,416.1 135.9,406.4 140.2,392.9 C141.2,373.4 144.1,370.9 142.5,329.7 C159.9,312.3 177.8,298.2 193.3,268.8 C222.1,260.5 239.6,237.1 263.9,214.5 C268.3,210.4 272,206.2 275.6,202.2 C283.6,186.4 278.8,167.5 272.8,149.4 C288.8,157.9 295.7,172.2 297.2,185.5 C310,184.9 320.7,183.6 331.8,180.2 C328.3,161.5 334.7,149.2 350.1,136.3 C341,160.3 337.9,166.7 345.3,175.6 C345.4,175.5 345.6,175.4 345.7,175.4 C350.5,185.1 350.4,194.5 350.6,204.8 C345.4,211.9 337.7,210 330.6,210.1 L315.2,229.6 C328.5,227.9 366.8,220.2 367,214.2 C367.8,197.6 371.4,179.8 366,164.4 C376.3,156.8 385.7,145.8 393.5,135 C404.5,119.6 407.9,106.7 420.2,85.1 C422.8,80.5 452.7,92.6 458.2,90.9 C466.9,88.2 472.5,84.5 471.6,75.1 C471.4,72.5 457.9,64 450.7,58.6 C450.7,58.6 451.9,49 449.2,45.33 C445,39.58 429.4,35.91 429.4,35.91 C426.5,14.31 401.7,0.43 386.5,0.56 Z M438.9,48.26 C441.8,48.26 444.1,50.52 444.1,53.26 C444.1,56.04 441.8,58.2 438.9,58.2 C436,58.2 433.7,56.04 433.7,53.26 C433.7,50.52 436,48.28 438.9,48.26 Z" id="Shape"></path>
            </g>
            <ellipse id="Oval" fill="#000000" cx="319.5" cy="188.5" rx="63.5" ry="40.5"></ellipse>
        </g>
    </g>
</svg>