<?xml version="1.0" encoding="UTF-8"?>
<svg width="88px" height="88px" viewBox="0 0 88 88" version="1.1" xmlns="http://www.w3.org/2000/svg" xmlns:xlink="http://www.w3.org/1999/xlink">
    <!-- Generator: Sketch 49.1 (51147) - http://www.bohemiancoding.com/sketch -->
    <title>oth</title>
    <desc>Created with Sketch.</desc>
    <defs></defs>
    <g id="Page-1" stroke="none" stroke-width="1" fill="none" fill-rule="evenodd">
        <g id="oth" transform="translate(-1.000000, -2.000000)" fill-rule="nonzero">
            <g id="background" transform="translate(0.000000, 1.000000)">
                <g id="Group">
                    <path d="M38.698,37.144 C51.668,31.427 75.406,31.542 87.006,35.64 C82.72,16.393 65.519,1.957 45,1.957 C27.188,1.957 11.87,12.832 5.333,28.291 C16.12,28.571 28.229,31.956 38.698,37.144 Z" id="Shape" fill="#269FEC"></path>
                    <path d="M88.043,45 C88.043,42.581 87.832,40.211 87.447,37.9 C77.318,33.761 54.131,33.324 40.984,38.323 C48.37,42.262 54.775,47.091 59.088,52.316 C68.313,49.695 77.82,48.403 87.902,48.33 C87.987,47.23 88.043,46.122 88.043,45 Z" id="Shape" fill="#1AB413"></path>
                    <path d="M57.043,52.919 C46.272,40.457 23.262,30.47 4.567,30.234 C2.879,34.841 1.957,39.815 1.957,45 C1.957,57.172 7.044,68.172 15.194,76.009 C29.245,64.838 42.833,57.279 57.043,52.919 Z" id="Shape" fill="#1AB413"></path>
                    <path d="M16.654,77.351 C24.232,83.999 34.15,88.043 45,88.043 C66.943,88.043 85.091,71.535 87.707,50.288 C61.928,50.521 39.939,58.899 16.654,77.351 Z" id="Shape" fill="#6EC681"></path>
                </g>
            </g>
            <g id="bike" transform="translate(42.378197, 34.050331) scale(-1, 1) rotate(20.000000) translate(-42.378197, -34.050331) translate(14.378197, 8.050331)" fill="#000000">
                <g id="Group">
                    <path d="M44.8,30.3 C43.7,30.3 42.6,30.5 41.6,30.8 L39.5,25.9 C39.5,25.9 39.5,25.8 39.5,25.8 L40.2,24.4 C40.3,24.3 40.4,24.1 40.5,23.9 C41.4,22.7 41.6,21 40.8,19.5 L37.1,12.6 C36,10.6 33.6,9.9 31.6,10.9 C31.4,11 31.2,11.1 31.1,11.2 L19.6,19.1 C19.2,19.4 18.9,19.8 18.8,20.3 C17,20.9 15.6,22.3 15.1,24.2 L13.5,30.2 C12.9,30.1 12.2,30 11.5,30 C5.4,30.1 0.6,35 0.6,40.9 C0.6,46.8 5.4,51.7 11.4,51.7 C17.3,51.7 22.2,46.9 22.2,40.9 C22.2,36.4 19.4,32.6 15.5,30.9 L15.8,29.7 L27.5,40.3 L28.5,45.1 C28.7,46.1 29.7,46.8 30.8,46.6 C31.9,46.4 32.5,45.4 32.3,44.3 L31.9,42.4 L34.3,42.3 C35,47.4 39.4,51.4 44.8,51.4 C50.6,51.4 55.4,46.7 55.4,40.8 C55.4,35.1 50.6,30.3 44.8,30.3 Z M20,40.9 C20,45.6 16.2,49.5 11.4,49.5 C6.6,49.5 2.8,45.7 2.8,40.9 C2.8,36.1 6.6,32.3 11.4,32.3 C11.9,32.3 12.4,32.3 12.8,32.4 L10.6,40.6 C10.4,41.2 10.8,41.8 11.4,42 C11.5,42 11.6,42 11.7,42 C12.2,42 12.6,41.7 12.8,41.2 L15,33.1 C17.9,34.4 20,37.4 20,40.9 Z M19.6,22.5 C20.2,22.9 21.1,22.9 21.7,22.5 L21.8,22.4 L23.6,22.4 C24.2,22.4 24.7,21.9 24.7,21.3 C24.7,21 24.6,20.8 24.4,20.6 L29.9,16.8 L33.5,23.5 C33.5,23.6 33.6,23.7 33.6,23.7 L30.8,25.2 L17.1,25 L17.1,24.8 C17.5,23.7 18.4,22.8 19.6,22.5 Z M16.5,27.4 L16.5,27.3 L26.9,27.4 L26.6,27.6 C25.8,27.9 25.3,28.6 25.3,29.4 C25.3,29.6 25.3,29.8 25.4,30 L26.8,36.8 L16.5,27.4 Z M29.5,30.4 L35,27.4 L36.2,27.4 L31,37.9 L29.5,30.4 Z M38.2,28.4 L39.6,31.7 C36.6,33.4 34.5,36.6 34.2,40.2 L32.2,40.3 L38.2,28.4 Z M40.5,33.7 L43.2,39.8 L36.5,40.1 C36.7,37.4 38.3,35.1 40.5,33.7 Z M44.8,49.3 C40.7,49.3 37.2,46.3 36.6,42.4 L44.9,42.1 C45.3,42.1 45.6,41.9 45.8,41.6 C46,41.3 46,40.9 45.9,40.6 L42.6,33 C43.3,32.8 44.1,32.7 44.9,32.7 C49.5,32.7 53.3,36.5 53.3,41.1 C53.3,45.7 49.4,49.3 44.8,49.3 Z" id="Shape"></path>
                    <circle id="Oval" cx="28" cy="5.3" r="5"></circle>
                </g>
            </g>
        </g>
    </g>
</svg>