<?xml version="1.0" encoding="UTF-8"?>
<svg width="475px" height="475px" viewBox="0 0 475 475" version="1.1" xmlns="http://www.w3.org/2000/svg" xmlns:xlink="http://www.w3.org/1999/xlink">
    <!-- Generator: Sketch 49.1 (51147) - http://www.bohemiancoding.com/sketch -->
    <title>AUS_header</title>
    <desc>Created with Sketch.</desc>
    <defs></defs>
    <g id="Page-1" stroke="none" stroke-width="1" fill="none" fill-rule="evenodd">
        <g id="AUS_header" fill-rule="nonzero">
            <path d="M467.164,66.9271949 C460.964,64.5877944 438.864,62.0449679 429.564,61.0278373 C425.264,57.4678801 413.764,48.5171306 407.164,48.5171306 C405.765785,48.4912228 404.385733,48.8421462 403.164,49.5342612 C401.39774,50.518389 400.125473,52.219155 399.664,54.2130621 C398.964,57.0610278 399.764,60.1124197 401.964,64.5877944 C398.778763,63.4238369 395.443674,62.7385398 392.064,62.5535332 C389.477529,62.4120237 386.982771,63.548215 385.364,65.6049251 C384.024581,67.2847441 383.509372,69.4931779 383.964,71.6059957 C385.964,81.3704497 403.164,94.7965739 403.164,94.7965739 C403.066437,95.0220362 402.93109,95.2285353 402.764,95.4068522 C386.964,123.072805 361.064,127.141328 346.964,127.141328 L341.864,127.141328 C331.894846,127.173695 321.939093,127.887293 312.064,129.277302 L313.364,125.615632 C330.616753,77.0587534 306.010143,23.4546546 258.332853,5.73341447 C210.655564,-11.9878256 157.866912,12.8491171 140.274332,61.2796846 C122.681752,109.710252 146.912104,163.49138 194.464,181.557816 L196.364,182.269807 C184.471715,185.786409 172.14866,187.567218 159.764,187.558887 C147.192294,187.521296 134.681787,185.776764 122.564,182.37152 C104.964,177.489293 60.064,158.672377 20.864,90.4229122 C15.864,81.6755889 11.864,80.8618844 8.964,80.8618844 C6.3087568,80.8296003 3.80612868,82.1213464 2.264,84.3201285 C-0.036,87.4732334 -0.236,91.9486081 1.564,97.5428266 C3.164,102.62848 18.164,148.399358 53.064,181.964668 C89.964,217.462527 136.064,237.398287 194.164,243.094218 L194.364,243.094218 C206.283594,243.822269 218.142804,245.351301 229.864,247.671306 L228.364,249.807281 C223.864,256.011777 206.464,266.895075 189.564,277.37152 C172.864,287.746253 137.564,305.342612 137.264,305.546039 C135.464,306.461456 92.964,327.414347 78.164,340.535332 C55.464,360.776231 52.464,381.627409 56.764,393.324411 C58.864,398.91863 62.664,402.275161 67.064,402.275161 C72.164,402.275161 75.664,398.410064 81.964,391.493576 C90.1578088,382.172743 99.1978589,373.658935 108.964,366.06531 C144.364,338.704497 185.464,315.717345 230.964,297.917559 C240.364,294.255889 261.464,287.949679 267.664,286.017131 L270.464,285.203426 C268.964,293.340471 263.764,300.460385 255.164,305.749465 C248.164,309.817987 218.464,328.533191 205.764,336.568522 C202.964,338.399358 189.064,346.638116 183.764,349.791221 C156.064,365.963597 129.864,381.32227 98.664,413.056745 C80.364,431.670236 78.564,456.793362 83.064,467.880086 C85.664,474.389722 90.264,475 92.064,475 C98.164,475 103.264,469.405782 114.364,457.301927 C120.564,450.487152 128.364,442.044968 137.964,432.890792 C173.364,398.91863 222.264,370.03212 261.464,346.739829 C279.464,336.059957 294.964,326.905782 306.164,319.073876 C325.264,305.851178 350.464,282.965739 362.964,248.688437 C377.164,234.143469 390.064,216.547109 402.064,195.289079 C403.164,202.61242 403.864,210.444325 402.864,215.021413 C401.764,220.310493 402.364,224.480728 404.664,227.328694 C406.316114,229.434486 408.81533,230.668118 411.464,230.685225 C419.264,230.685225 426.664,220.615632 428.464,207.291221 C430.264,194.373662 430.364,162.639186 430.364,161.316916 C430.464,143.110278 432.164,133.650964 434.864,124.293362 C436.364,119.716274 440.464,110.968951 442.264,108.93469 C447.768264,102.800929 454.995585,98.5394049 462.964,96.7291221 L463.564,96.5256959 C470.764,94.0845824 474.064,85.9475375 474.264,79.3361884 C474.364,73.3351178 471.664,68.6563169 467.164,66.9271949 Z" id="Shape" fill="#FFFFFF"></path>
            <path d="M259.464,264.759101 C257.364,262.724839 250.964,257.842612 233.764,253.77409 C228.664,260.690578 213.764,270.251606 193.164,283.067452 C175.964,293.747323 140.264,311.547109 140.264,311.547109 C140.264,311.547109 96.864,332.906852 82.664,345.519272 C53.564,371.35439 61.864,395.460385 67.164,395.460385 C72.064,395.460385 80.664,379.491435 105.064,360.674518 C139.864,333.720557 180.664,310.326552 228.664,291.611349 C238.564,287.746253 260.464,281.134904 265.864,279.609208 C265.688819,274.255453 263.589656,269.152872 259.964,265.267666 L259.464,264.759101 Z" id="Shape" fill="#000000"></path>
            <path d="M404.964,87.9817987 C408.364,79.0310493 409.564,74.9625268 404.064,72.5214133 C399.464,70.487152 391.564,68.2494647 390.464,69.5717345 C388.864,71.8094218 402.464,86.3543897 404.964,87.9817987 Z" id="Shape" fill="#000000"></path>
            <path d="M361.964,213.800857 C361.56446,196.73746 353.767291,180.727048 340.664,170.06424 C339.196328,168.855118 337.660371,167.73436 336.064,166.707709 C327.629981,161.191216 317.88574,158.098369 307.864,157.756959 C277.064,156.638116 250.464,181.557816 249.864,213.292291 C249.364,237.906852 262.164,250.824411 267.564,256.316916 L268.064,256.825482 C279.964,269.031049 283.964,295.679872 258.364,311.547109 C290.864,292.730193 333.964,272.184154 356.964,245.026767 C356.964,244.925054 356.964,244.925054 357.064,244.82334 C357.964,242.382227 362.264,228.040685 361.964,213.800857 Z" id="Shape" fill="#000000"></path>
            <path d="M232.964,172.810493 C213.664,185.219486 173.864,203.426124 120.964,188.881156 C57.064,171.183084 17.564,97.6445396 14.664,92.7623126 C9.864,84.6252677 5.164,86.5578158 7.964,95.5085653 C10.764,104.561028 25.764,146.365096 57.764,177.082441 C89.264,207.392934 132.564,230.278373 194.864,236.381156 C247.564,240.042827 262.964,251.739829 267.564,256.215203 C262.164,250.722698 249.364,237.805139 249.864,213.190578 C250.464,181.456103 277.064,156.536403 307.864,157.655246 C317.883173,158.012017 327.623503,161.103622 336.064,166.605996 L335.864,166.40257 C316.064,152.569593 271.464,148.704497 232.964,172.810493 Z" id="Shape" fill="#000000"></path>
            <path d="M258.464,311.547109 C250.164,316.429336 205.764,344.502141 204.064,345.519272 C170.364,365.861884 140.064,380.203426 103.264,417.837259 C82.564,438.993576 86.364,468.286938 91.964,468.286938 C97.464,468.286938 110.064,450.182013 133.264,427.906852 C185.564,377.762313 267.064,338.195931 302.264,313.479657 C324.664,297.917559 346.364,275.337259 357.064,244.925054 C334.064,272.285867 290.964,292.730193 258.464,311.547109 Z" id="Shape" fill="#000000"></path>
            <path d="M464.864,73.2334047 C460.064,71.4025696 440.764,68.9614561 426.864,67.4357602 C421.464,62.5535332 408.964,53.8062099 406.364,55.3319058 C403.664,56.8576017 414.964,73.2334047 416.364,76.5899358 C415.108908,84.4163737 412.429771,91.9360835 408.464,98.7633833 C386.864,136.498929 348.464,133.752677 344.364,133.85439 C359.364,134.159529 401.164,135.278373 430.664,110.562099 C432.964,108.527837 435.264,106.391863 437.464,104.154176 C443.869186,97.1468573 452.195273,92.2569698 461.364,90.117773 C467.864,88.0835118 469.664,75.0642398 464.864,73.2334047 Z" id="Shape" fill="#000000"></path>
            <path d="M405.064,175.251606 C406.264,182.066381 411.464,205.256959 409.164,216.445396 C406.364,229.973233 419.264,224.480728 421.764,206.27409 C423.464,193.66167 423.664,161.11349 423.664,161.11349 C423.764,141.076017 425.864,131.006424 428.564,121.852248 C422.964,135.380086 415.464,154.603854 405.064,175.251606 Z" id="Shape" fill="#000000"></path>
            <path d="M230.964,158.062099 C245.164,148.094218 266.664,133.040685 296.964,125.412206 C300.364,124.598501 303.764,123.784797 307.264,123.276231 C323.297404,78.2210404 300.47926,28.4630529 256.236727,12.0044965 C211.994194,-4.45405987 162.998247,18.5885437 146.669112,63.5337203 C130.339977,108.478897 152.830616,158.390909 196.964,175.149893 C207.170447,171.903982 216.918783,167.322415 225.964,161.520343 C227.364,160.604925 229.064,159.384368 230.964,158.062099 Z" id="Shape" fill="#FEC214"></path>
            <path d="M430.664,110.663812 C401.164,135.380086 359.264,134.261242 344.364,133.956103 C338.564,133.85439 317.564,134.057816 300.164,138.431478 C268.264,146.466809 246.864,163.452891 232.964,172.912206 C271.464,148.80621 316.164,152.671306 335.864,166.605996 C335.964,166.605996 335.964,166.707709 336.064,166.809422 C337.660371,167.836073 339.196328,168.956831 340.664,170.165953 C353.838125,180.770584 361.652882,196.817113 361.964,213.90257 C362.264,228.244111 357.964,242.48394 357.164,244.925054 L357.164,245.026767 C377.764,224.073876 393.264,198.849036 405.064,175.353319 C415.464,154.705567 422.964,135.481799 428.564,122.055675 C432.264,113.104925 435.164,106.798715 437.464,104.255889 C435.264,106.493576 432.964,108.62955 430.664,110.663812 Z" id="Shape" fill="#000000"></path>
        </g>
    </g>
</svg>